G04 MADE WITH FRITZING*
G04 WWW.FRITZING.ORG*
G04 DOUBLE SIDED*
G04 HOLES PLATED*
G04 CONTOUR ON CENTER OF CONTOUR VECTOR*
%ASAXBY*%
%FSLAX23Y23*%
%MOIN*%
%OFA0B0*%
%SFA1.0B1.0*%
%ADD10C,0.167480*%
%ADD11C,0.090000*%
%ADD12C,0.088000*%
%ADD13C,0.085000*%
%ADD14C,0.080555*%
%ADD15C,0.080583*%
%ADD16R,0.090000X0.090000*%
%ADD17R,0.080542X0.080570*%
%LNMASK0*%
G90*
G70*
G54D10*
X220Y161D03*
X3620Y161D03*
X1120Y3561D03*
X2856Y3655D03*
G54D11*
X623Y3461D03*
X820Y3461D03*
X3720Y3558D03*
X3720Y3361D03*
X3720Y3558D03*
X3720Y3361D03*
G54D12*
X1220Y3361D03*
X1220Y3361D03*
G54D13*
X740Y185D03*
X1140Y185D03*
X740Y185D03*
X1140Y185D03*
G54D12*
X940Y485D03*
X940Y385D03*
X940Y285D03*
X940Y485D03*
X940Y385D03*
X940Y285D03*
G54D13*
X940Y485D03*
X940Y385D03*
X940Y285D03*
X940Y485D03*
X940Y385D03*
X940Y285D03*
G54D12*
X840Y85D03*
X940Y85D03*
X840Y85D03*
X940Y85D03*
X1240Y485D03*
X1240Y485D03*
X1240Y285D03*
X1240Y285D03*
X840Y385D03*
X840Y385D03*
X640Y485D03*
X640Y485D03*
X3640Y585D03*
X3640Y485D03*
X3040Y285D03*
X3140Y285D03*
X3240Y285D03*
G54D13*
X3040Y585D03*
X3440Y585D03*
X3040Y585D03*
X3440Y585D03*
X3381Y1917D03*
X3281Y1917D03*
X3181Y1917D03*
X3381Y1917D03*
X3281Y1917D03*
X3181Y1917D03*
X2881Y2717D03*
X2781Y2717D03*
X2681Y2717D03*
X2881Y2717D03*
X2781Y2717D03*
X2681Y2717D03*
X2181Y2717D03*
X2081Y2717D03*
X1981Y2717D03*
X2181Y2717D03*
X2081Y2717D03*
X1981Y2717D03*
X1481Y2717D03*
X1381Y2717D03*
X1281Y2717D03*
X1481Y2717D03*
X1381Y2717D03*
X1281Y2717D03*
X781Y2717D03*
X681Y2717D03*
X581Y2717D03*
X781Y2717D03*
X681Y2717D03*
X581Y2717D03*
X2981Y1917D03*
X2981Y1517D03*
X2981Y1917D03*
X2981Y1517D03*
X2581Y2717D03*
X2581Y2317D03*
X2581Y2717D03*
X2581Y2317D03*
X1881Y2717D03*
X1881Y2317D03*
X1881Y2717D03*
X1881Y2317D03*
X1181Y2717D03*
X1181Y2317D03*
X1181Y2717D03*
X1181Y2317D03*
X481Y2717D03*
X481Y2317D03*
X481Y2717D03*
X481Y2317D03*
G54D12*
X1581Y2017D03*
X1481Y2017D03*
X1381Y2017D03*
X1281Y2017D03*
X1581Y2017D03*
X1481Y2017D03*
X1381Y2017D03*
X1281Y2017D03*
X1183Y1020D03*
X1283Y1020D03*
X1383Y1020D03*
X1483Y1020D03*
X1583Y1020D03*
X1683Y1020D03*
X1783Y1020D03*
X1883Y1020D03*
X1983Y1020D03*
X2083Y1020D03*
X2183Y1020D03*
X2283Y1020D03*
X2383Y1020D03*
X2483Y1020D03*
X2583Y1020D03*
X2683Y1020D03*
X2783Y1020D03*
X1183Y1020D03*
X1283Y1020D03*
X1383Y1020D03*
X1483Y1020D03*
X1583Y1020D03*
X1683Y1020D03*
X1783Y1020D03*
X1883Y1020D03*
X1983Y1020D03*
X2083Y1020D03*
X2183Y1020D03*
X2283Y1020D03*
X2383Y1020D03*
X2483Y1020D03*
X2583Y1020D03*
X2683Y1020D03*
X2783Y1020D03*
X1183Y1620D03*
X1283Y1620D03*
X1383Y1620D03*
X1483Y1620D03*
X1583Y1620D03*
X1683Y1620D03*
X1783Y1620D03*
X1883Y1620D03*
X1983Y1620D03*
X2083Y1620D03*
X2183Y1620D03*
X2283Y1620D03*
X2383Y1620D03*
X2483Y1620D03*
X2583Y1620D03*
X2683Y1620D03*
X2783Y1620D03*
X1183Y1620D03*
X1283Y1620D03*
X1383Y1620D03*
X1483Y1620D03*
X1583Y1620D03*
X1683Y1620D03*
X1783Y1620D03*
X1883Y1620D03*
X1983Y1620D03*
X2083Y1620D03*
X2183Y1620D03*
X2283Y1620D03*
X2383Y1620D03*
X2483Y1620D03*
X2583Y1620D03*
X2683Y1620D03*
X2783Y1620D03*
G54D14*
X1183Y1020D03*
X1283Y1020D03*
X1383Y1020D03*
X1483Y1020D03*
X1583Y1020D03*
X1683Y1020D03*
X1783Y1020D03*
X1883Y1020D03*
X1983Y1020D03*
G54D15*
X2083Y1020D03*
X2183Y1020D03*
X2283Y1020D03*
G54D14*
X2383Y1020D03*
X2483Y1020D03*
G54D15*
X2583Y1020D03*
X2683Y1020D03*
X2783Y1020D03*
G54D14*
X1183Y1620D03*
X1283Y1620D03*
X1383Y1620D03*
X1483Y1620D03*
X1583Y1620D03*
X1683Y1620D03*
X1983Y1620D03*
G54D15*
X2083Y1620D03*
G54D14*
X1883Y1620D03*
X1783Y1620D03*
G54D15*
X2183Y1620D03*
X2283Y1620D03*
G54D14*
X2383Y1620D03*
X2483Y1620D03*
G54D15*
X2583Y1620D03*
X2683Y1620D03*
X2783Y1620D03*
G54D12*
X3440Y2385D03*
X3440Y2285D03*
X3440Y2185D03*
X3440Y2085D03*
X3440Y2385D03*
X3440Y2285D03*
X3440Y2185D03*
X3440Y2085D03*
X3640Y2385D03*
X3640Y2285D03*
X3640Y2185D03*
X3640Y2085D03*
X3640Y2385D03*
X3640Y2285D03*
X3640Y2185D03*
X3640Y2085D03*
X181Y2917D03*
X181Y2817D03*
X181Y2717D03*
X181Y2917D03*
X181Y2817D03*
X181Y2717D03*
X3320Y3561D03*
X3320Y3461D03*
X3320Y3361D03*
X3320Y3261D03*
X3320Y3561D03*
X3320Y3461D03*
X3320Y3361D03*
X3320Y3261D03*
X3481Y3017D03*
X3481Y2917D03*
X3481Y2817D03*
X3481Y2717D03*
X3481Y3017D03*
X3481Y2917D03*
X3481Y2817D03*
X3481Y2717D03*
X240Y3485D03*
X240Y3385D03*
X240Y3485D03*
X240Y3385D03*
X2581Y2317D03*
X2581Y2317D03*
X2781Y2417D03*
X2781Y2417D03*
X2081Y2417D03*
X2081Y2417D03*
X1381Y2417D03*
X1381Y2417D03*
X1881Y2317D03*
X1881Y2317D03*
X1181Y2317D03*
X1181Y2317D03*
X481Y2317D03*
X481Y2317D03*
X2881Y2517D03*
X2881Y2517D03*
X3240Y985D03*
X3140Y985D03*
X3240Y985D03*
X3140Y985D03*
X3540Y1185D03*
X3540Y1185D03*
X3440Y985D03*
X3340Y985D03*
X3440Y985D03*
X3340Y985D03*
X3381Y1917D03*
X3281Y1917D03*
X3181Y1917D03*
X3381Y1917D03*
X3281Y1917D03*
X3181Y1917D03*
X2881Y2717D03*
X2781Y2717D03*
X2681Y2717D03*
X2881Y2717D03*
X2781Y2717D03*
X2681Y2717D03*
X2881Y3217D03*
X2881Y3217D03*
X2881Y2917D03*
X2881Y2917D03*
X2581Y2717D03*
X2581Y2717D03*
X3240Y2485D03*
X3240Y2485D03*
X3040Y2385D03*
X3040Y2385D03*
X2781Y3017D03*
X2781Y3017D03*
X2181Y3217D03*
X2181Y3217D03*
X2181Y2717D03*
X2081Y2717D03*
X1981Y2717D03*
X2181Y2717D03*
X2081Y2717D03*
X1981Y2717D03*
X2181Y2517D03*
X2181Y2517D03*
X2181Y2917D03*
X2181Y2917D03*
X1881Y2717D03*
X1881Y2717D03*
X2081Y3017D03*
X2081Y3017D03*
X1481Y2917D03*
X1481Y2917D03*
X1481Y2517D03*
X1481Y2517D03*
X1481Y2717D03*
X1381Y2717D03*
X1281Y2717D03*
X1481Y2717D03*
X1381Y2717D03*
X1281Y2717D03*
X1381Y3017D03*
X1381Y3017D03*
X1181Y2717D03*
X1181Y2717D03*
X1481Y3217D03*
X1481Y3217D03*
X681Y3017D03*
X681Y3017D03*
X781Y2517D03*
X781Y2517D03*
X781Y2717D03*
X681Y2717D03*
X581Y2717D03*
X781Y2717D03*
X681Y2717D03*
X581Y2717D03*
X781Y2917D03*
X781Y2917D03*
X481Y2717D03*
X481Y2717D03*
X781Y3217D03*
X781Y3217D03*
X2781Y1817D03*
X2681Y1817D03*
X2581Y1817D03*
X2481Y1817D03*
X2381Y1817D03*
X2281Y1817D03*
X2181Y1817D03*
X2081Y1817D03*
X1981Y1817D03*
X1881Y1817D03*
X1781Y1817D03*
X1681Y1817D03*
X1581Y1817D03*
X1481Y1817D03*
X1381Y1817D03*
X1281Y1817D03*
X1181Y1817D03*
X2781Y1817D03*
X2681Y1817D03*
X2581Y1817D03*
X2481Y1817D03*
X2381Y1817D03*
X2281Y1817D03*
X2181Y1817D03*
X2081Y1817D03*
X1981Y1817D03*
X1881Y1817D03*
X1781Y1817D03*
X1681Y1817D03*
X1581Y1817D03*
X1481Y1817D03*
X1381Y1817D03*
X1281Y1817D03*
X1181Y1817D03*
X2781Y817D03*
X2681Y817D03*
X2581Y817D03*
X2481Y817D03*
X2381Y817D03*
X2281Y817D03*
X2181Y817D03*
X2081Y817D03*
X1981Y817D03*
X1881Y817D03*
X1781Y817D03*
X1681Y817D03*
X1581Y817D03*
X1481Y817D03*
X1381Y817D03*
X1281Y817D03*
X1181Y817D03*
X2781Y817D03*
X2681Y817D03*
X2581Y817D03*
X2481Y817D03*
X2381Y817D03*
X2281Y817D03*
X2181Y817D03*
X2081Y817D03*
X1981Y817D03*
X1881Y817D03*
X1781Y817D03*
X1681Y817D03*
X1581Y817D03*
X1481Y817D03*
X1381Y817D03*
X1281Y817D03*
X1181Y817D03*
G54D16*
X623Y3461D03*
X3720Y3558D03*
X3720Y3558D03*
G54D17*
X1183Y1020D03*
G04 End of Mask0*
M02*