; NON-PLATED HOLES START AT T1
; THROUGH (PLATED) HOLES START AT T100
M48
INCH
T1C0.157480
T100C0.035000
T101C0.040000
T102C0.038000
T103C0.037222
T104C0.037250
%
T1
X011196Y035607
X002196Y001607
X036196Y001607
X028559Y036547
T100
X009402Y002848
X011402Y001847
X005806Y027169
X030403Y005848
X026806Y027169
X027806Y027169
X020806Y027169
X007402Y001847
X018806Y027169
X011806Y027169
X004806Y023169
X034403Y005848
X031806Y019169
X029806Y015169
X009402Y003848
X025806Y023169
X028806Y027169
X021806Y027169
X014805Y027169
X009402Y004848
X013805Y027169
X012805Y027169
X032806Y019169
X019806Y027169
X029806Y019169
X025806Y027169
X033806Y019169
X011806Y023169
X006806Y027169
X007806Y027169
X018806Y023169
X004806Y027169
T101
X008196Y034607
X037196Y033607
X006227Y034607
X037196Y035575
T102
X007806Y025169
X001806Y029169
X021832Y016204
X013806Y020169
X012832Y016204
X034806Y029169
X030402Y023848
X015806Y018169
X025806Y008169
X017832Y010204
X001806Y027169
X018832Y016204
X033196Y034607
X019806Y008169
X034806Y030169
X024832Y010204
X030402Y002848
X031402Y009848
X034402Y020848
X009402Y003848
X034806Y027169
X014832Y010204
X032402Y009848
X019806Y018169
X020832Y010204
X019806Y027169
X034402Y023848
X011832Y016204
X009402Y000848
X025806Y027169
X022832Y016204
X025806Y018169
X015806Y008169
X027832Y010204
X004806Y027169
X016806Y008169
X026806Y018169
X020806Y018169
X014806Y032169
X020832Y016204
X020806Y030169
X014806Y020169
X020806Y024169
X036402Y022848
X014832Y016204
X036402Y021848
X026806Y027169
X020806Y027169
X002402Y033848
X027832Y016204
X022832Y010204
X021806Y032169
X011832Y010204
X028806Y032169
X031402Y002848
X012806Y008169
X022806Y018169
X034402Y009848
X032402Y002848
X017832Y016204
X012806Y027169
X012832Y010204
X022806Y008169
X012806Y018169
X032806Y019169
X021832Y010204
X007806Y029169
X026806Y008169
X016806Y018169
X020806Y008169
X018832Y010204
X011806Y023169
X007806Y027169
X018806Y023169
X024832Y016204
X027806Y018169
X015832Y016204
X017806Y008169
X008402Y003848
X013832Y016204
X016832Y010204
X006402Y004848
X027806Y030169
X014806Y025169
X012402Y002848
X027806Y024169
X033196Y033607
X013806Y008169
X023806Y018169
X032402Y024848
X019832Y016204
X027806Y027169
X035402Y011848
X004806Y023169
X036402Y023848
X021806Y025169
X028806Y025169
X025806Y023169
X012402Y004848
X036402Y004848
X008402Y000848
X033402Y009848
X023832Y016204
X026832Y010204
X013806Y024169
X017806Y018169
X025832Y016204
X013806Y027169
X027806Y008169
X006806Y030169
X002402Y034848
X023806Y008169
X013806Y018169
X033806Y019169
X006806Y027169
X012196Y033607
X013806Y030169
X015806Y020169
X036402Y020848
X014806Y008169
X009402Y002848
X024806Y018169
X033196Y032607
X007806Y032169
X033196Y035607
X005806Y027169
X018806Y027169
X011806Y027169
X011806Y018169
X031806Y019169
X018806Y018169
X021806Y008169
X023832Y010204
X026832Y016204
X012806Y020169
X025832Y010204
X028806Y027169
X021806Y027169
X009402Y004848
X019832Y010204
X001806Y028169
X014806Y029169
X034806Y028169
X036402Y005848
X015832Y010204
X018806Y008169
X021806Y018169
X034402Y022848
X011806Y008169
X034402Y021848
X013832Y010204
X016832Y016204
X028806Y029169
X021806Y029169
X024806Y008169
X014806Y018169
X014806Y027169
T103
X014832Y010204
X015832Y016204
X023832Y016204
X018832Y016204
X011832Y016204
X017832Y016204
X024832Y010204
X013832Y016204
X016832Y010204
X019832Y010204
X012832Y010204
X011832Y010204
X018832Y010204
X023832Y010204
X014832Y016204
X015832Y010204
X012832Y016204
X019832Y016204
X013832Y010204
X016832Y016204
X017832Y010204
X024832Y016204
T104
X027832Y016204
X026832Y010204
X022832Y010204
X020832Y016204
X025832Y016204
X021832Y016204
X022832Y016204
X020832Y010204
X026832Y016204
X027832Y010204
X021832Y010204
X025832Y010204
T00
M30
